<svg width="40" height="40" viewBox="0 0 40 40" fill="none" xmlns="http://www.w3.org/2000/svg">
<path d="M31.6666 11.6666C31.6666 9.83331 30.1666 8.33331 28.3333 8.33331H23.3333V11.6666H28.3333V16.0833L22.5333 23.3333H16.6666V15H9.99992C6.31659 15 3.33325 17.9833 3.33325 21.6666V26.6666H6.66659C6.66659 29.4333 8.89992 31.6666 11.6666 31.6666C14.4333 31.6666 16.6666 29.4333 16.6666 26.6666H24.1333L31.6666 17.25V11.6666ZM11.6666 28.3333C10.7499 28.3333 9.99992 27.5833 9.99992 26.6666H13.3333C13.3333 27.5833 12.5833 28.3333 11.6666 28.3333Z" fill="white"/>
<path d="M8.33325 10H16.6666V13.3333H8.33325V10ZM31.6666 21.6667C28.8999 21.6667 26.6666 23.9 26.6666 26.6667C26.6666 29.4333 28.8999 31.6667 31.6666 31.6667C34.4333 31.6667 36.6666 29.4333 36.6666 26.6667C36.6666 23.9 34.4333 21.6667 31.6666 21.6667ZM31.6666 28.3333C30.7499 28.3333 29.9999 27.5833 29.9999 26.6667C29.9999 25.75 30.7499 25 31.6666 25C32.5833 25 33.3333 25.75 33.3333 26.6667C33.3333 27.5833 32.5833 28.3333 31.6666 28.3333Z" fill="white"/>
</svg>
