<svg width="40" height="40" viewBox="0 0 40 40" fill="none" xmlns="http://www.w3.org/2000/svg">
<path d="M9.99992 33.3334L12.4999 27.0834C12.7499 26.4445 13.1527 25.9372 13.7083 25.5617C14.2638 25.1861 14.8888 24.9989 15.5833 25H18.3333V18.2917C14.0833 18.1528 10.5205 17.5278 7.64492 16.4167C4.76936 15.3056 3.33214 14 3.33325 12.5C3.33325 10.8889 4.95825 9.51391 8.20825 8.37502C11.4583 7.23613 15.3888 6.66669 19.9999 6.66669C24.6388 6.66669 28.5766 7.23613 31.8133 8.37502C35.0499 9.51391 36.6677 10.8889 36.6666 12.5C36.6666 14 35.2288 15.3056 32.3533 16.4167C29.4777 17.5278 25.9155 18.1528 21.6666 18.2917V25H24.4166C25.0833 25 25.7016 25.1878 26.2716 25.5634C26.8416 25.9389 27.251 26.4456 27.4999 27.0834L29.9999 33.3334H26.6666L24.6666 28.3334H15.3333L13.3333 33.3334H9.99992Z" fill="white"/>
</svg>
